<svg xmlns="http://www.w3.org/2000/svg" xmlns:xlink="http://www.w3.org/1999/xlink" width="128" zoomAndPan="magnify" viewBox="0 0 96 95.999999" height="128" preserveAspectRatio="xMidYMid meet" version="1.2"><defs><clipPath id="1e1876b454"><path d="M 50 27 L 78.316406 27 L 78.316406 86.101562 L 50 86.101562 Z M 50 27 "/></clipPath><clipPath id="40d4615c40"><path d="M 17.566406 9.601562 L 60 9.601562 L 60 71 L 17.566406 71 Z M 17.566406 9.601562 "/></clipPath><clipPath id="d80911068f"><path d="M 62 9.601562 L 78.316406 9.601562 L 78.316406 27 L 62 27 Z M 62 9.601562 "/></clipPath></defs><g id="ca27f368de"><path style=" stroke:none;fill-rule:nonzero;fill:#148449;fill-opacity:1;" d="M 76.113281 29.738281 L 64.5625 29.734375 L 64.5625 53.054688 C 64.5625 63.332031 64.039062 67.242188 62.386719 70.617188 C 60.8125 73.917969 58.335938 76.066406 53.234375 78.519531 L 63.960938 83.734375 C 69.0625 81.128906 71.539062 78.75 73.414062 74.992188 C 75.4375 71.082031 76.113281 66.554688 76.113281 57.121094 Z M 76.113281 29.738281 "/><path style=" stroke:none;fill-rule:nonzero;fill:#148449;fill-opacity:1;" d="M 56.714844 67.304688 L 56.714844 12.027344 L 45.078125 12.027344 L 45.078125 28.617188 C 43.34375 28.128906 41.90625 27.964844 40.019531 27.964844 C 27.851562 27.964844 19.992188 36.222656 19.992188 48.929688 C 19.992188 62.125 27.398438 69.003906 41.605469 69.003906 C 46.363281 69.003906 50.746094 68.519531 56.714844 67.304688 Z M 31.855469 48.683594 C 31.855469 41.886719 35.253906 38 41.148438 38 L 41.140625 38 C 41.222656 37.996094 41.300781 37.996094 41.386719 37.996094 C 42.707031 37.996094 43.976562 38.238281 45.082031 38.648438 L 45.082031 58.640625 C 43.421875 58.886719 42.363281 58.964844 41.078125 58.964844 C 35.109375 58.964844 31.855469 55.324219 31.855469 48.683594 Z M 31.855469 48.683594 "/><path style=" stroke:none;fill-rule:nonzero;fill:#148449;fill-opacity:1;" d="M 63.949219 11.628906 L 76.398438 11.628906 L 76.398438 24.464844 L 63.949219 24.464844 Z M 63.949219 11.628906 "/><g clip-rule="nonzero" clip-path="url(#1e1876b454)"><path style=" stroke:none;fill-rule:nonzero;fill:#000000;fill-opacity:1;" d="M 63.855469 86.125 C 63.5 86.125 63.132812 86.046875 62.804688 85.882812 L 52.183594 80.703125 C 51.359375 80.300781 50.835938 79.46875 50.839844 78.550781 C 50.84375 77.636719 51.367188 76.800781 52.195312 76.402344 C 56.738281 74.210938 58.8125 72.453125 60.136719 69.679688 C 61.609375 66.65625 62.058594 62.824219 62.058594 53.257812 L 62.058594 30.085938 C 62.058594 28.765625 63.132812 27.695312 64.453125 27.695312 L 75.890625 27.695312 C 77.214844 27.695312 78.289062 28.769531 78.289062 30.089844 L 78.289062 57.292969 C 78.289062 67.132812 77.546875 71.890625 75.347656 76.144531 C 73.246094 80.375 70.328125 83.109375 64.953125 85.859375 C 64.609375 86.035156 64.234375 86.125 63.855469 86.125 Z M 58.410156 78.414062 L 63.8125 81.050781 C 67.589844 78.980469 69.546875 77.046875 71.070312 73.984375 C 72.882812 70.464844 73.492188 66.265625 73.492188 57.292969 L 73.492188 32.480469 L 66.847656 32.476562 L 66.847656 53.253906 C 66.847656 63.789062 66.308594 67.941406 64.453125 71.75 C 63.171875 74.441406 61.347656 76.496094 58.410156 78.414062 Z M 58.410156 78.414062 "/></g><g clip-rule="nonzero" clip-path="url(#40d4615c40)"><path style=" stroke:none;fill-rule:nonzero;fill:#000000;fill-opacity:1;" d="M 41.613281 70.230469 C 26.125 70.230469 17.597656 62.679688 17.597656 48.972656 C 17.597656 35.757812 26.609375 26.878906 40.023438 26.878906 C 41 26.878906 41.863281 26.921875 42.695312 27.011719 L 42.695312 12.015625 C 42.695312 10.695312 43.769531 9.625 45.089844 9.625 L 56.730469 9.625 C 58.050781 9.625 59.125 10.695312 59.125 12.015625 L 59.125 66.242188 C 59.125 67.390625 58.308594 68.375 57.179688 68.589844 C 51.074219 69.753906 46.5625 70.230469 41.613281 70.230469 Z M 56.726562 66.242188 L 56.757812 66.242188 Z M 40.023438 31.660156 C 29.148438 31.660156 22.390625 38.292969 22.390625 48.972656 C 22.390625 60.058594 28.679688 65.445312 41.613281 65.445312 C 45.707031 65.445312 49.507812 65.09375 54.332031 64.246094 L 54.332031 14.40625 L 47.484375 14.40625 L 47.484375 29.878906 C 47.484375 30.617188 47.140625 31.320312 46.550781 31.773438 C 45.960938 32.226562 45.191406 32.375 44.480469 32.191406 C 43.003906 31.804688 41.796875 31.660156 40.023438 31.660156 Z M 41.085938 60.792969 C 33.8125 60.792969 29.46875 56.289062 29.46875 48.742188 C 29.46875 41.078125 33.9375 36.320312 41.136719 36.3125 C 41.140625 36.3125 41.144531 36.3125 41.144531 36.3125 C 41.140625 36.296875 41.371094 36.304688 41.390625 36.304688 C 42.933594 36.304688 44.488281 36.5625 45.882812 37.050781 C 46.839844 37.386719 47.484375 38.289062 47.484375 39.308594 L 47.484375 58.097656 C 47.484375 59.292969 46.601562 60.304688 45.417969 60.464844 C 43.6875 60.703125 42.515625 60.792969 41.085938 60.792969 Z M 41.160156 41.089844 C 36.578125 41.089844 34.257812 43.664062 34.257812 48.738281 C 34.257812 53.699219 36.429688 56.007812 41.085938 56.007812 C 41.652344 56.007812 42.160156 55.992188 42.695312 55.953125 L 42.695312 41.179688 C 42.238281 41.113281 41.773438 41.113281 41.308594 41.085938 C 41.257812 41.089844 41.210938 41.089844 41.160156 41.089844 Z M 41.160156 41.089844 "/></g><g clip-rule="nonzero" clip-path="url(#d80911068f)"><path style=" stroke:none;fill-rule:nonzero;fill:#000000;fill-opacity:1;" d="M 75.890625 26.457031 L 64.453125 26.457031 C 63.132812 26.457031 62.058594 25.386719 62.058594 24.066406 L 62.058594 12.027344 C 62.058594 10.710938 63.132812 9.636719 64.453125 9.636719 L 75.890625 9.636719 C 77.214844 9.636719 78.289062 10.710938 78.289062 12.027344 L 78.289062 24.066406 C 78.289062 25.386719 77.214844 26.457031 75.890625 26.457031 Z M 66.847656 21.675781 L 73.496094 21.675781 L 73.496094 14.417969 L 66.847656 14.417969 Z M 66.847656 21.675781 "/></g></g></svg>