<svg xmlns="http://www.w3.org/2000/svg" xmlns:xlink="http://www.w3.org/1999/xlink" width="128" zoomAndPan="magnify" viewBox="0 0 96 95.999999" height="128" preserveAspectRatio="xMidYMid meet" version="1.2"><defs><clipPath id="8a24264dcd"><path d="M 9.601562 9.601562 L 86.101562 9.601562 L 86.101562 86.101562 L 9.601562 86.101562 Z M 9.601562 9.601562 "/></clipPath></defs><g id="e0cf551bc0"><g clip-rule="nonzero" clip-path="url(#8a24264dcd)"><path style=" stroke:none;fill-rule:nonzero;fill:#f03c2e;fill-opacity:1;" d="M 84.65625 44.441406 L 51.257812 11.042969 C 51.027344 10.816406 50.777344 10.609375 50.511719 10.429688 C 50.242188 10.25 49.957031 10.097656 49.660156 9.976562 C 49.359375 9.851562 49.050781 9.757812 48.734375 9.695312 C 48.417969 9.632812 48.097656 9.601562 47.773438 9.601562 C 47.449219 9.601562 47.128906 9.632812 46.8125 9.695312 C 46.496094 9.757812 46.1875 9.851562 45.886719 9.976562 C 45.589844 10.097656 45.304688 10.25 45.035156 10.429688 C 44.769531 10.609375 44.519531 10.816406 44.289062 11.042969 L 37.359375 17.976562 L 46.15625 26.773438 C 48.203125 26.058594 50.542969 26.546875 52.175781 28.175781 C 52.5625 28.566406 52.890625 29 53.15625 29.480469 C 53.421875 29.960938 53.617188 30.46875 53.738281 31.007812 C 53.859375 31.542969 53.90625 32.082031 53.878906 32.632812 C 53.847656 33.179688 53.742188 33.714844 53.5625 34.234375 L 62.042969 42.710938 C 64.09375 42.003906 66.460938 42.460938 68.097656 44.105469 C 68.371094 44.375 68.613281 44.671875 68.828125 44.992188 C 69.042969 45.3125 69.222656 45.652344 69.371094 46.007812 C 69.519531 46.363281 69.628906 46.730469 69.703125 47.105469 C 69.78125 47.484375 69.816406 47.867188 69.816406 48.25 C 69.816406 48.636719 69.78125 49.015625 69.703125 49.394531 C 69.628906 49.773438 69.519531 50.140625 69.371094 50.496094 C 69.222656 50.851562 69.042969 51.1875 68.828125 51.507812 C 68.613281 51.828125 68.371094 52.125 68.097656 52.398438 C 67.828125 52.671875 67.53125 52.914062 67.210938 53.128906 C 66.890625 53.339844 66.550781 53.523438 66.195312 53.667969 C 65.839844 53.816406 65.472656 53.925781 65.097656 54.003906 C 64.71875 54.078125 64.335938 54.113281 63.953125 54.113281 C 63.566406 54.113281 63.183594 54.078125 62.808594 54 C 62.429688 53.925781 62.0625 53.816406 61.707031 53.667969 C 61.351562 53.519531 61.015625 53.339844 60.695312 53.125 C 60.375 52.910156 60.078125 52.667969 59.804688 52.394531 C 58.085938 50.671875 57.660156 48.140625 58.527344 46.019531 L 50.621094 38.109375 L 50.621094 58.921875 C 51.199219 59.207031 51.714844 59.578125 52.175781 60.03125 C 52.445312 60.300781 52.691406 60.597656 52.902344 60.917969 C 53.117188 61.238281 53.296875 61.578125 53.445312 61.933594 C 53.59375 62.289062 53.703125 62.65625 53.777344 63.03125 C 53.855469 63.410156 53.890625 63.789062 53.890625 64.175781 C 53.890625 64.558594 53.855469 64.941406 53.777344 65.320312 C 53.703125 65.695312 53.59375 66.0625 53.445312 66.417969 C 53.296875 66.773438 53.117188 67.113281 52.902344 67.433594 C 52.691406 67.753906 52.445312 68.046875 52.175781 68.320312 C 51.902344 68.59375 51.605469 68.835938 51.285156 69.050781 C 50.964844 69.265625 50.628906 69.445312 50.273438 69.589844 C 49.917969 69.738281 49.550781 69.851562 49.171875 69.925781 C 48.796875 70 48.414062 70.039062 48.027344 70.039062 C 47.644531 70.039062 47.261719 70 46.886719 69.925781 C 46.507812 69.851562 46.140625 69.738281 45.785156 69.589844 C 45.429688 69.445312 45.09375 69.265625 44.773438 69.050781 C 44.453125 68.835938 44.15625 68.59375 43.882812 68.320312 C 43.613281 68.050781 43.367188 67.753906 43.152344 67.433594 C 42.941406 67.113281 42.757812 66.773438 42.613281 66.417969 C 42.464844 66.0625 42.351562 65.695312 42.277344 65.320312 C 42.203125 64.941406 42.164062 64.5625 42.164062 64.175781 C 42.164062 63.789062 42.203125 63.410156 42.277344 63.03125 C 42.351562 62.652344 42.464844 62.289062 42.613281 61.933594 C 42.757812 61.574219 42.941406 61.238281 43.152344 60.917969 C 43.367188 60.597656 43.613281 60.300781 43.882812 60.03125 C 44.449219 59.464844 45.078125 59.039062 45.804688 58.75 L 45.804688 37.746094 C 45.105469 37.460938 44.449219 37.039062 43.882812 36.46875 C 43.472656 36.058594 43.128906 35.59375 42.855469 35.082031 C 42.582031 34.570312 42.390625 34.027344 42.277344 33.457031 C 42.164062 32.886719 42.136719 32.308594 42.195312 31.730469 C 42.253906 31.152344 42.398438 30.59375 42.621094 30.058594 L 33.945312 21.386719 L 11.042969 44.265625 C 10.8125 44.492188 10.609375 44.742188 10.429688 45.011719 C 10.25 45.28125 10.097656 45.5625 9.972656 45.863281 C 9.847656 46.160156 9.753906 46.46875 9.691406 46.785156 C 9.628906 47.105469 9.597656 47.425781 9.597656 47.75 C 9.597656 48.070312 9.628906 48.390625 9.691406 48.710938 C 9.753906 49.027344 9.847656 49.335938 9.972656 49.632812 C 10.097656 49.933594 10.25 50.21875 10.429688 50.484375 C 10.609375 50.753906 10.8125 51.003906 11.042969 51.234375 L 44.441406 84.628906 C 44.671875 84.859375 44.921875 85.0625 45.191406 85.242188 C 45.457031 85.421875 45.742188 85.574219 46.042969 85.699219 C 46.339844 85.820312 46.648438 85.914062 46.964844 85.976562 C 47.28125 86.042969 47.601562 86.074219 47.925781 86.074219 C 48.25 86.074219 48.570312 86.042969 48.886719 85.976562 C 49.203125 85.914062 49.511719 85.820312 49.8125 85.699219 C 50.109375 85.574219 50.394531 85.421875 50.664062 85.242188 C 50.933594 85.0625 51.179688 84.859375 51.410156 84.628906 L 84.65625 51.4375 C 84.886719 51.207031 85.089844 50.957031 85.269531 50.6875 C 85.449219 50.421875 85.601562 50.136719 85.726562 49.835938 C 85.847656 49.539062 85.941406 49.230469 86.003906 48.914062 C 86.070312 48.59375 86.101562 48.273438 86.101562 47.953125 C 86.101562 47.628906 86.070312 47.308594 86.003906 46.988281 C 85.941406 46.671875 85.847656 46.363281 85.726562 46.066406 C 85.601562 45.765625 85.449219 45.484375 85.269531 45.214844 C 85.089844 44.945312 84.886719 44.695312 84.65625 44.46875 "/></g></g></svg>