<svg xmlns="http://www.w3.org/2000/svg" xmlns:xlink="http://www.w3.org/1999/xlink" width="128" zoomAndPan="magnify" viewBox="0 0 96 95.999999" height="128" preserveAspectRatio="xMidYMid meet" version="1.2"><defs><clipPath id="7268a00d8d"><path d="M 13.160156 9.601562 L 82.910156 9.601562 L 82.910156 86 L 13.160156 86 Z M 13.160156 9.601562 "/></clipPath></defs><g id="eadaae5b2c"><g clip-rule="nonzero" clip-path="url(#7268a00d8d)"><path style=" stroke:none;fill-rule:nonzero;fill:#8cc84b;fill-opacity:1;" d="M 44.816406 10.617188 C 46.734375 9.539062 49.175781 9.535156 51.042969 10.617188 L 79.652344 26.664062 C 81.441406 27.664062 82.636719 29.648438 82.621094 31.703125 L 82.621094 63.875 C 82.632812 66.011719 81.316406 68.039062 79.429688 69.023438 L 50.976562 84.996094 C 50.492188 85.261719 49.976562 85.460938 49.4375 85.589844 C 48.894531 85.722656 48.347656 85.78125 47.792969 85.765625 C 47.238281 85.75 46.691406 85.660156 46.160156 85.5 C 45.628906 85.339844 45.128906 85.113281 44.65625 84.820312 L 36.117188 79.910156 C 35.535156 79.566406 34.882812 79.292969 34.46875 78.730469 C 34.832031 78.246094 35.480469 78.183594 36.007812 77.96875 C 37.195312 77.59375 38.28125 77.015625 39.375 76.40625 C 39.652344 76.214844 39.988281 76.285156 40.25 76.457031 L 47.53125 80.648438 C 48.050781 80.945312 48.578125 80.550781 49.023438 80.300781 L 76.964844 64.613281 C 77.308594 64.445312 77.5 64.085938 77.472656 63.707031 L 77.472656 31.84375 C 77.511719 31.414062 77.261719 31.023438 76.871094 30.851562 L 48.492188 14.949219 C 48.324219 14.832031 48.136719 14.773438 47.933594 14.773438 C 47.730469 14.773438 47.546875 14.832031 47.378906 14.945312 L 19.035156 30.882812 C 18.652344 31.054688 18.390625 31.441406 18.4375 31.871094 L 18.4375 63.734375 C 18.402344 64.109375 18.605469 64.464844 18.953125 64.628906 L 26.523438 68.882812 C 27.949219 69.644531 29.695312 70.074219 31.261719 69.511719 C 31.601562 69.382812 31.917969 69.207031 32.207031 68.984375 C 32.496094 68.757812 32.742188 68.496094 32.953125 68.195312 C 33.160156 67.894531 33.316406 67.574219 33.425781 67.222656 C 33.535156 66.875 33.585938 66.519531 33.585938 66.15625 L 33.59375 34.484375 C 33.558594 34.011719 34.003906 33.625 34.460938 33.671875 L 38.101562 33.671875 C 38.582031 33.660156 38.957031 34.164062 38.894531 34.636719 L 38.886719 66.511719 C 38.890625 69.339844 37.71875 72.421875 35.085938 73.808594 C 31.84375 75.476562 27.835938 75.128906 24.628906 73.523438 L 16.488281 69.042969 C 14.570312 68.089844 13.285156 66.03125 13.296875 63.894531 L 13.296875 31.722656 C 13.300781 31.199219 13.375 30.6875 13.515625 30.183594 C 13.65625 29.679688 13.863281 29.203125 14.132812 28.753906 C 14.402344 28.308594 14.726562 27.902344 15.105469 27.539062 C 15.484375 27.175781 15.90625 26.871094 16.367188 26.621094 Z M 53.066406 32.917969 C 57.203125 32.679688 61.628906 32.761719 65.351562 34.789062 C 68.234375 36.34375 69.832031 39.605469 69.882812 42.792969 C 69.800781 43.222656 69.351562 43.460938 68.941406 43.429688 C 67.742188 43.425781 66.539062 43.445312 65.339844 43.421875 C 64.828125 43.441406 64.535156 42.972656 64.46875 42.527344 C 64.125 41 63.289062 39.492188 61.847656 38.753906 C 59.632812 37.652344 57.066406 37.707031 54.652344 37.730469 C 52.886719 37.828125 50.992188 37.976562 49.5 39.007812 C 48.351562 39.789062 48.007812 41.390625 48.417969 42.632812 C 48.800781 43.546875 49.859375 43.839844 50.726562 44.109375 C 55.710938 45.40625 60.992188 45.300781 65.886719 46.988281 C 67.910156 47.683594 69.890625 49.035156 70.585938 51.144531 C 71.492188 53.972656 71.097656 57.351562 69.078125 59.621094 C 67.4375 61.488281 65.054688 62.480469 62.671875 63.058594 C 59.5 63.761719 56.214844 63.777344 53 63.460938 C 49.972656 63.117188 46.828125 62.328125 44.492188 60.277344 C 42.492188 58.554688 41.519531 55.863281 41.617188 53.273438 C 41.640625 52.832031 42.078125 52.527344 42.503906 52.5625 L 46.09375 52.5625 C 46.578125 52.53125 46.933594 52.945312 46.957031 53.398438 C 47.179688 54.828125 47.730469 56.378906 49.003906 57.210938 C 51.460938 58.789062 54.542969 58.679688 57.355469 58.722656 C 59.6875 58.621094 62.300781 58.589844 64.207031 57.054688 C 65.210938 56.179688 65.503906 54.71875 65.234375 53.460938 C 64.941406 52.398438 63.796875 51.90625 62.839844 51.554688 C 57.917969 50.007812 52.578125 50.570312 47.703125 48.816406 C 45.722656 48.121094 43.8125 46.804688 43.050781 44.78125 C 41.992188 41.921875 42.476562 38.375 44.710938 36.183594 C 46.867188 34.003906 50.027344 33.164062 53.023438 32.863281 Z M 53.066406 32.917969 "/></g></g></svg>