<svg xmlns="http://www.w3.org/2000/svg" xmlns:xlink="http://www.w3.org/1999/xlink" width="128" zoomAndPan="magnify" viewBox="0 0 96 95.999999" height="128" preserveAspectRatio="xMidYMid meet" version="1.2"><defs><clipPath id="0c7d38f607"><path d="M 47 9.601562 L 65.988281 9.601562 L 65.988281 77 L 47 77 Z M 47 9.601562 "/></clipPath><clipPath id="65fc3300db"><path d="M 30 9.601562 L 49 9.601562 L 49 77 L 30 77 Z M 30 9.601562 "/></clipPath><clipPath id="3b37828857"><path d="M 46 67 L 51 67 L 51 86.101562 L 46 86.101562 Z M 46 67 "/></clipPath></defs><g id="2587efd745"><g clip-rule="nonzero" clip-path="url(#0c7d38f607)"><path style=" stroke:none;fill-rule:nonzero;fill:#599636;fill-opacity:1;" d="M 47.867188 9.808594 L 49.914062 13.640625 C 50.375 14.351562 50.875 14.976562 51.460938 15.558594 C 53.175781 17.269531 54.804688 19.058594 56.269531 20.976562 C 59.738281 25.519531 62.078125 30.5625 63.75 36.019531 C 64.753906 39.351562 65.296875 42.769531 65.339844 46.226562 C 65.507812 56.5625 61.953125 65.433594 54.785156 72.808594 C 53.617188 73.976562 52.363281 75.058594 51.019531 76.019531 C 50.3125 76.019531 49.976562 75.476562 49.683594 74.976562 C 49.136719 74.0625 48.804688 73.015625 48.636719 71.976562 C 48.386719 70.726562 48.21875 69.476562 48.300781 68.183594 L 48.300781 67.601562 C 48.242188 67.476562 47.617188 10.101562 47.867188 9.808594 Z M 47.867188 9.808594 "/></g><g clip-rule="nonzero" clip-path="url(#65fc3300db)"><path style=" stroke:none;fill-rule:nonzero;fill:#6cac48;fill-opacity:1;" d="M 47.867188 9.679688 C 47.78125 9.515625 47.699219 9.640625 47.613281 9.722656 C 47.65625 10.558594 47.363281 11.304688 46.90625 12.015625 C 46.402344 12.722656 45.734375 13.265625 45.066406 13.851562 C 41.347656 17.058594 38.421875 20.933594 36.078125 25.269531 C 32.960938 31.101562 31.355469 37.351562 30.898438 43.933594 C 30.691406 46.308594 31.652344 54.683594 32.402344 57.101562 C 34.453125 63.519531 38.128906 68.894531 42.894531 73.5625 C 44.066406 74.683594 45.316406 75.726562 46.613281 76.730469 C 46.988281 76.730469 47.03125 76.394531 47.117188 76.144531 C 47.28125 75.613281 47.40625 75.070312 47.492188 74.519531 L 48.332031 68.269531 Z M 47.867188 9.679688 "/></g><g clip-rule="nonzero" clip-path="url(#3b37828857)"><path style=" stroke:none;fill-rule:nonzero;fill:#c2bfbf;fill-opacity:1;" d="M 49.914062 78.558594 C 50 77.601562 50.460938 76.808594 50.960938 76.015625 C 50.457031 75.808594 50.082031 75.394531 49.789062 74.933594 C 49.539062 74.515625 49.328125 74.019531 49.167969 73.558594 C 48.582031 71.808594 48.457031 69.972656 48.289062 68.183594 L 48.289062 67.101562 C 48.082031 67.269531 48.039062 68.683594 48.039062 68.894531 C 47.914062 70.785156 47.664062 72.660156 47.285156 74.519531 C 47.160156 75.269531 47.074219 76.019531 46.613281 76.6875 C 46.613281 76.769531 46.613281 76.851562 46.652344 76.976562 C 47.40625 79.1875 47.613281 81.4375 47.738281 83.726562 L 47.738281 84.566406 C 47.738281 85.566406 47.699219 85.355469 48.53125 85.6875 C 48.867188 85.8125 49.242188 85.855469 49.578125 86.105469 C 49.828125 86.105469 49.871094 85.898438 49.871094 85.730469 L 49.746094 84.355469 L 49.746094 80.519531 C 49.703125 79.851562 49.828125 79.1875 49.914062 78.558594 Z M 49.914062 78.558594 "/></g></g></svg>