<svg xmlns="http://www.w3.org/2000/svg" xmlns:xlink="http://www.w3.org/1999/xlink" width="128" zoomAndPan="magnify" viewBox="0 0 96 95.999999" height="128" preserveAspectRatio="xMidYMid meet" version="1.2"><defs><clipPath id="5374794ba9"><path d="M 9.601562 9.601562 L 86.101562 9.601562 L 86.101562 86.101562 L 9.601562 86.101562 Z M 9.601562 9.601562 "/></clipPath></defs><g id="fe4f020aae"><g clip-rule="nonzero" clip-path="url(#5374794ba9)"><path style=" stroke:none;fill-rule:nonzero;fill:#016ec5;fill-opacity:1;" d="M 66.96875 9.601562 L 66.96875 75.304688 L 9.601562 66.78125 L 66.96875 86.101562 L 86.09375 78.140625 L 86.09375 18.742188 L 86.101562 18.738281 L 86.09375 18.726562 L 86.09375 17.554688 Z M 46.894531 20.792969 L 29.320312 38.164062 L 18.742188 30.195312 L 14.382812 31.652344 L 25.144531 42.292969 L 14.382812 52.929688 L 18.742188 54.386719 L 29.320312 46.417969 L 46.890625 63.785156 L 57.414062 59.316406 L 57.414062 25.265625 Z M 46.890625 33.1875 L 46.890625 51.394531 L 34.804688 42.289062 Z M 46.890625 33.1875 "/></g></g></svg>