<svg xmlns="http://www.w3.org/2000/svg" xmlns:xlink="http://www.w3.org/1999/xlink" width="128" zoomAndPan="magnify" viewBox="0 0 96 95.999999" height="128" preserveAspectRatio="xMidYMid meet" version="1.2"><defs><clipPath id="57926f24ad"><path d="M 14.257812 9.601562 L 81.757812 9.601562 L 81.757812 86.101562 L 14.257812 86.101562 Z M 14.257812 9.601562 "/></clipPath></defs><g id="eae7c508ba"><g clip-rule="nonzero" clip-path="url(#57926f24ad)"><path style=" stroke:none;fill-rule:nonzero;fill:#0528a2;fill-opacity:1;" d="M 14.261719 9.617188 L 20.382812 78.4375 L 47.871094 86.082031 L 75.351562 78.445312 L 81.484375 9.617188 Z M 68.394531 32.101562 L 67.621094 40.753906 L 65.289062 66.675781 L 47.871094 71.46875 L 47.859375 71.476562 L 30.453125 66.65625 L 29.238281 53.078125 L 37.765625 53.078125 L 38.398438 60.128906 L 47.863281 62.683594 L 47.867188 62.683594 L 57.347656 60.144531 L 58.636719 48.429688 L 28.828125 48.515625 L 27.984375 40.503906 L 59.351562 40.136719 L 59.988281 31.5625 L 27.144531 31.644531 L 26.59375 23.65625 L 69.152344 23.65625 Z M 68.394531 32.101562 "/></g></g></svg>