<svg xmlns="http://www.w3.org/2000/svg" xmlns:xlink="http://www.w3.org/1999/xlink" width="128" zoomAndPan="magnify" viewBox="0 0 96 95.999999" height="128" preserveAspectRatio="xMidYMid meet" version="1.2"><defs><clipPath id="f58a17c8a4"><path d="M 9.601562 9.601562 L 86.101562 9.601562 L 86.101562 86.101562 L 9.601562 86.101562 Z M 9.601562 9.601562 "/></clipPath></defs><g id="cd9c9c6bc7"><g clip-rule="nonzero" clip-path="url(#f58a17c8a4)"><path style=" stroke:none;fill-rule:nonzero;fill:#000000;fill-opacity:1;" d="M 47.851562 9.601562 C 26.726562 9.601562 9.601562 26.726562 9.601562 47.851562 C 9.601562 68.976562 26.726562 86.101562 47.851562 86.101562 C 68.976562 86.101562 86.101562 68.976562 86.101562 47.851562 C 86.101562 26.726562 68.976562 9.601562 47.851562 9.601562 Z M 47.851562 83.203125 C 28.324219 83.203125 12.496094 67.375 12.496094 47.851562 C 12.496094 28.324219 28.324219 12.496094 47.851562 12.496094 C 67.375 12.496094 83.203125 28.324219 83.203125 47.851562 C 83.203125 67.375 67.375 83.203125 47.851562 83.203125 Z M 47.851562 83.203125 "/></g><path style=" stroke:none;fill-rule:nonzero;fill:#000000;fill-opacity:1;" d="M 43.359375 66.597656 C 42.402344 66.691406 41.636719 66.796875 40.867188 66.832031 C 36.5 67.039062 33.269531 65.320312 31.3125 61.308594 C 30.6875 60.027344 29.886719 58.824219 29.054688 57.664062 C 28.554688 56.96875 27.855469 56.410156 27.210938 55.832031 L 27.203125 55.824219 C 26.800781 55.472656 26.976562 54.816406 27.503906 54.726562 C 28.121094 54.625 28.695312 54.734375 29.253906 54.878906 C 31.011719 55.324219 32.136719 56.570312 33.035156 58.054688 C 35.0625 61.421875 38.558594 62.824219 42.339844 61.824219 C 42.980469 61.652344 43.261719 61.375 43.402344 60.675781 C 43.566406 59.859375 43.785156 59.054688 44.023438 58.234375 C 44.09375 57.992188 44.117188 57.742188 44.085938 57.492188 C 44.054688 57.238281 43.972656 57.003906 43.84375 56.78125 C 43.71875 56.5625 43.550781 56.378906 43.347656 56.226562 C 43.140625 56.074219 42.917969 55.972656 42.667969 55.914062 L 42.648438 55.90625 C 38.726562 54.96875 35.339844 53.222656 33.15625 49.636719 C 31.988281 47.722656 31.410156 45.613281 31.441406 43.410156 C 31.472656 40.917969 31.695312 38.417969 31.980469 35.933594 C 32.183594 34.1875 32.992188 32.640625 34.25 31.386719 C 34.6875 30.945312 34.722656 30.578125 34.511719 30.011719 C 33.648438 27.691406 33.796875 25.367188 34.566406 23.039062 C 34.78125 22.382812 35.089844 22.289062 35.71875 22.488281 C 37.660156 23.097656 39.109375 24.363281 40.382812 25.875 L 40.398438 25.890625 C 40.726562 26.285156 41.132812 26.554688 41.625 26.695312 C 42.117188 26.835938 42.605469 26.828125 43.09375 26.671875 C 47.125 25.347656 53.246094 25.332031 57.046875 26.640625 C 57.535156 26.808594 58.03125 26.820312 58.527344 26.679688 C 59.023438 26.539062 59.4375 26.273438 59.769531 25.875 L 59.78125 25.859375 C 61.058594 24.347656 62.515625 23.09375 64.457031 22.480469 C 65.105469 22.273438 65.382812 22.429688 65.589844 23.0625 C 66.347656 25.390625 66.476562 27.703125 65.65625 30.046875 C 65.542969 30.378906 65.546875 30.953125 65.753906 31.160156 C 67.492188 32.925781 68.257812 35.121094 68.449219 37.496094 C 68.636719 39.789062 68.839844 42.125 68.625 44.402344 C 68.070312 50.328125 64.46875 53.78125 58.988281 55.496094 C 58.519531 55.644531 58.042969 55.769531 57.554688 55.882812 C 57.300781 55.941406 57.066406 56.054688 56.859375 56.210938 C 56.648438 56.371094 56.480469 56.566406 56.355469 56.796875 C 56.230469 57.027344 56.15625 57.273438 56.132812 57.535156 C 56.109375 57.796875 56.144531 58.050781 56.230469 58.300781 C 56.976562 60.460938 56.863281 62.773438 56.851562 65.070312 C 56.847656 65.597656 56.84375 66.125 56.84375 66.652344 C 56.84375 67.089844 56.800781 67.523438 56.714844 67.953125 C 56.628906 68.382812 56.5 68.796875 56.332031 69.199219 C 56.164062 69.605469 55.960938 69.988281 55.714844 70.351562 C 55.472656 70.714844 55.195312 71.050781 54.886719 71.359375 C 54.578125 71.667969 54.242188 71.941406 53.878906 72.1875 C 53.511719 72.429688 53.128906 72.632812 52.726562 72.800781 C 52.320312 72.96875 51.90625 73.09375 51.476562 73.179688 C 51.046875 73.261719 50.613281 73.304688 50.175781 73.304688 L 50.027344 73.304688 C 49.589844 73.304688 49.15625 73.261719 48.726562 73.179688 C 48.296875 73.09375 47.878906 72.964844 47.476562 72.796875 C 47.070312 72.632812 46.6875 72.425781 46.324219 72.183594 C 45.960938 71.9375 45.621094 71.664062 45.3125 71.351562 C 45.003906 71.042969 44.726562 70.707031 44.484375 70.34375 C 44.242188 69.980469 44.035156 69.59375 43.867188 69.191406 C 43.699219 68.785156 43.574219 68.367188 43.488281 67.941406 C 43.402344 67.511719 43.359375 67.078125 43.359375 66.640625 Z M 43.359375 66.597656 "/></g></svg>