<svg xmlns="http://www.w3.org/2000/svg" xmlns:xlink="http://www.w3.org/1999/xlink" width="128" zoomAndPan="magnify" viewBox="0 0 96 95.999999" height="128" preserveAspectRatio="xMidYMid meet" version="1.2"><defs><clipPath id="e7b553fe13"><path d="M 14.347656 9.601562 L 81.847656 9.601562 L 81.847656 86 L 14.347656 86 Z M 14.347656 9.601562 "/></clipPath></defs><g id="6ab91a765e"><g clip-rule="nonzero" clip-path="url(#e7b553fe13)"><path style=" stroke:none;fill-rule:nonzero;fill:#e44d26;fill-opacity:1;" d="M 20.476562 78.285156 L 14.328125 9.8125 L 81.867188 9.8125 L 75.714844 78.277344 L 48.054688 85.890625 Z M 20.476562 78.285156 "/></g><path style=" stroke:none;fill-rule:nonzero;fill:#f16529;fill-opacity:1;" d="M 70.445312 73.917969 L 75.707031 15.410156 L 48.097656 15.410156 L 48.097656 80.070312 Z M 70.445312 73.917969 "/><path style=" stroke:none;fill-rule:nonzero;fill:#ebebeb;fill-opacity:1;" d="M 48.070312 23.808594 L 26.894531 23.808594 L 29.175781 49.207031 L 48.097656 49.207031 L 48.097656 40.808594 L 36.910156 40.808594 L 36.136719 32.207031 L 48.097656 32.207031 L 48.097656 23.808594 Z M 48.097656 62.589844 L 48.0625 62.601562 L 38.644531 60.074219 L 38.046875 53.378906 L 29.554688 53.378906 L 30.738281 66.5625 L 48.058594 71.316406 L 48.097656 71.304688 Z M 48.097656 62.589844 "/><path style=" stroke:none;fill-rule:nonzero;fill:#ffffff;fill-opacity:1;" d="M 48.070312 49.207031 L 58.480469 49.207031 L 57.523438 60.09375 L 48.09375 62.621094 L 48.09375 71.359375 L 65.425781 66.585938 L 67.75 40.804688 L 48.097656 40.804688 Z M 69.046875 26.0625 L 69.246094 23.808594 L 48.0625 23.808594 L 48.0625 32.207031 L 68.488281 32.207031 L 68.652344 30.320312 Z M 69.046875 26.0625 "/></g></svg>