<svg xmlns="http://www.w3.org/2000/svg" xmlns:xlink="http://www.w3.org/1999/xlink" width="128" zoomAndPan="magnify" viewBox="0 0 96 95.999999" height="128" preserveAspectRatio="xMidYMid meet" version="1.2"><defs><clipPath id="f18bf81aea"><path d="M 9.601562 16 L 55 16 L 55 65 L 9.601562 65 Z M 9.601562 16 "/></clipPath><clipPath id="a9de32cd08"><path d="M 9.601562 9.601562 L 55 9.601562 L 55 23 L 9.601562 23 Z M 9.601562 9.601562 "/></clipPath><clipPath id="7f0c3d8710"><path d="M 9.601562 26 L 55 26 L 55 39 L 9.601562 39 Z M 9.601562 26 "/></clipPath><clipPath id="74ae9e6e6c"><path d="M 9.601562 42 L 44 42 L 44 55 L 9.601562 55 Z M 9.601562 42 "/></clipPath><clipPath id="9e07c7de2c"><path d="M 38 38 L 86.101562 38 L 86.101562 86.101562 L 38 86.101562 Z M 38 38 "/></clipPath></defs><g id="6154875a97"><g clip-rule="nonzero" clip-path="url(#f18bf81aea)"><path style=" stroke:none;fill-rule:nonzero;fill:#4184a9;fill-opacity:1;" d="M 9.601562 16.195312 L 9.601562 58.402344 C 9.601562 62.042969 19.636719 64.996094 32.023438 64.996094 C 34.355469 64.996094 36.613281 64.886719 38.734375 64.707031 L 54.445312 39.976562 L 54.445312 16.195312 L 9.601562 16.195312 "/></g><g clip-rule="nonzero" clip-path="url(#a9de32cd08)"><path style=" stroke:none;fill-rule:nonzero;fill:#35718a;fill-opacity:1;" d="M 54.445312 16.195312 C 54.445312 19.835938 44.410156 22.789062 32.023438 22.789062 C 19.640625 22.789062 9.601562 19.835938 9.601562 16.195312 C 9.601562 12.550781 19.640625 9.601562 32.023438 9.601562 C 44.410156 9.601562 54.445312 12.550781 54.445312 16.195312 "/></g><g clip-rule="nonzero" clip-path="url(#7f0c3d8710)"><path style=" stroke:none;fill-rule:nonzero;fill:#6de08e;fill-opacity:1;" d="M 9.601562 32.023438 C 9.601562 35.664062 19.640625 38.617188 32.023438 38.617188 C 44.410156 38.617188 54.445312 35.664062 54.445312 32.023438 L 54.445312 26.746094 C 54.445312 30.390625 44.410156 33.339844 32.023438 33.339844 C 19.640625 33.339844 9.601562 30.390625 9.601562 26.746094 L 9.601562 32.023438 "/></g><g clip-rule="nonzero" clip-path="url(#74ae9e6e6c)"><path style=" stroke:none;fill-rule:nonzero;fill:#6de08e;fill-opacity:1;" d="M 40.136719 54.007812 C 37.613281 54.285156 34.882812 54.445312 32.023438 54.445312 C 19.636719 54.445312 9.601562 51.492188 9.601562 47.851562 L 9.601562 42.574219 C 9.601562 46.214844 19.636719 49.167969 32.023438 49.167969 C 36.109375 49.167969 39.953125 48.855469 43.25 48.289062 L 40.136719 54.007812 "/></g><g clip-rule="nonzero" clip-path="url(#9e07c7de2c)"><path style=" stroke:none;fill-rule:nonzero;fill:#35718a;fill-opacity:1;" d="M 86.101562 62.359375 C 86.101562 75.472656 75.472656 86.101562 62.359375 86.101562 C 49.246094 86.101562 38.617188 75.472656 38.617188 62.359375 C 38.617188 49.246094 49.246094 38.617188 62.359375 38.617188 C 75.472656 38.617188 86.101562 49.246094 86.101562 62.359375 "/></g><path style=" stroke:none;fill-rule:nonzero;fill:#ffffff;fill-opacity:1;" d="M 50.488281 55.765625 C 51.941406 55.765625 53.125 56.949219 53.125 58.402344 C 53.125 59.128906 53.71875 59.71875 54.445312 59.71875 C 55.171875 59.71875 55.765625 59.128906 55.765625 58.402344 C 55.765625 55.492188 53.398438 53.125 50.488281 53.125 C 47.578125 53.125 45.210938 55.492188 45.210938 58.402344 C 45.210938 61.3125 47.578125 63.675781 50.488281 63.675781 C 51.941406 63.675781 53.125 64.863281 53.125 66.316406 C 53.125 67.769531 51.941406 68.953125 50.488281 68.953125 C 49.035156 68.953125 47.851562 67.769531 47.851562 66.316406 C 47.851562 65.589844 47.257812 64.996094 46.53125 64.996094 C 45.804688 64.996094 45.210938 65.589844 45.210938 66.316406 C 45.210938 69.226562 47.578125 71.589844 50.488281 71.589844 C 53.398438 71.589844 55.765625 69.226562 55.765625 66.316406 C 55.765625 63.40625 53.398438 61.039062 50.488281 61.039062 C 49.035156 61.039062 47.851562 59.855469 47.851562 58.402344 C 47.851562 56.949219 49.035156 55.765625 50.488281 55.765625 "/><path style=" stroke:none;fill-rule:nonzero;fill:#ffffff;fill-opacity:1;" d="M 66.09375 65.582031 C 65.691406 64.976562 64.871094 64.816406 64.265625 65.21875 C 63.65625 65.621094 63.492188 66.4375 63.898438 67.046875 L 64.945312 68.613281 C 64.5625 68.824219 64.136719 68.953125 63.675781 68.953125 C 62.226562 68.953125 61.039062 67.769531 61.039062 66.316406 L 61.039062 58.402344 C 61.039062 56.949219 62.226562 55.765625 63.675781 55.765625 C 65.128906 55.765625 66.316406 56.949219 66.316406 58.402344 L 66.316406 65.917969 Z M 63.675781 53.125 C 60.765625 53.125 58.402344 55.492188 58.402344 58.402344 L 58.402344 66.316406 C 58.402344 69.226562 60.765625 71.589844 63.675781 71.589844 C 64.683594 71.589844 65.609375 71.296875 66.410156 70.808594 L 66.535156 71.003906 C 66.789062 71.386719 67.207031 71.589844 67.632812 71.589844 C 67.886719 71.589844 68.140625 71.519531 68.367188 71.371094 C 68.972656 70.96875 69.140625 70.148438 68.730469 69.539062 L 68.273438 68.855469 C 68.691406 68.097656 68.953125 67.242188 68.953125 66.316406 L 68.953125 58.402344 C 68.953125 55.492188 66.589844 53.125 63.675781 53.125 "/><path style=" stroke:none;fill-rule:nonzero;fill:#ffffff;fill-opacity:1;" d="M 78.1875 68.953125 L 74.230469 68.953125 L 74.230469 54.445312 C 74.230469 53.71875 73.636719 53.125 72.910156 53.125 C 72.183594 53.125 71.589844 53.71875 71.589844 54.445312 L 71.589844 70.273438 C 71.589844 71 72.183594 71.589844 72.910156 71.589844 L 78.1875 71.589844 C 78.914062 71.589844 79.503906 71 79.503906 70.273438 C 79.503906 69.546875 78.914062 68.953125 78.1875 68.953125 "/></g></svg>